<svg width="51" height="76" viewBox="0 0 51 76" fill="none" xmlns="http://www.w3.org/2000/svg">
<path d="M43.1433 36.527C42.6608 35.5622 42.0406 34.873 41.5581 34.3905L45.0041 28.1189C47.2095 24.1905 48.3811 20.6068 48.8635 17.5054C48.9325 17.3676 48.9324 17.2297 48.9324 17.1608C49.4149 13.9905 49.2081 11.3716 48.8635 9.30406C48.0365 4.82433 45.9689 2.27433 45.9 2.13649C45.6243 1.7919 45.2108 1.58514 44.7973 1.51622C44.6595 1.51622 41.4203 1.10271 37.1473 2.75676C35.2176 3.51487 32.8743 4.75541 30.4622 6.82298C30.3933 6.8919 30.2554 6.96082 30.1865 7.02974C27.8433 9.0973 25.4311 11.9919 23.2257 15.9203L19.7797 22.1919C19.0906 21.9851 18.1257 21.8473 17.0919 21.9851C14.8865 22.1919 11.7852 23.2946 9.23515 27.9122L7.16759 31.7027C6.68515 32.5297 7.02975 33.5635 7.85678 34.046L12.8879 36.8716L14.3352 42.0405C14.473 42.4541 14.7487 42.8676 15.1622 43.0743L26.4649 49.346C26.8784 49.5527 27.3608 49.6216 27.7743 49.4838L32.9433 48.0365L37.9743 50.8622C38.8014 51.3446 39.8352 51 40.3176 50.173L42.3852 46.3824C44.7973 41.7649 44.177 38.5257 43.1433 36.527ZM13.577 33.2878L10.9581 31.8405L12.1987 29.5662C14.1973 25.9824 16.4716 25.3622 17.9879 25.4311L13.577 33.2878ZM38.1811 6.06487C40.5933 5.10001 42.5919 4.96217 43.6257 4.89325C44.177 5.78919 45.073 7.58109 45.4865 10.1311C45.6933 11.4405 45.8311 12.8189 45.7622 14.2662L34.5284 7.9946C35.7 7.23649 36.9406 6.5473 38.1811 6.06487ZM37.8365 33.977L31.9095 44.6595L27.4297 45.9689L17.3676 40.3865L16.0581 35.8378L21.9852 25.1554L26.1892 17.6432C27.8433 14.7487 29.6352 12.2676 31.7027 10.3378L45.3487 17.9189C44.7973 20.6757 43.6257 23.5014 42.0406 26.396L37.8365 33.977ZM38.0433 46.9338L35.3554 45.4865L39.7662 37.6297C39.9041 37.8365 40.0419 38.0432 40.1797 38.3189C41.0068 40.0419 40.7311 42.1784 39.2838 44.7284L38.0433 46.9338Z" fill="#0948B3"/>
<path d="M12.8878 45.7622C12.4743 45.5554 11.923 45.4865 11.5094 45.6243C11.3027 45.6932 6.96079 47.2095 4.96214 52.0338C3.17025 56.3068 3.7216 61.7514 6.75403 68.0919C6.89187 68.4365 7.16755 68.7122 7.44322 68.85C7.7189 68.9878 8.13241 69.1257 8.47701 69.0568C15.4378 68.2297 20.3311 65.9554 23.0189 62.0959C26.0513 57.823 25.0175 53.3432 25.0175 53.1365C24.8797 52.6541 24.604 52.2405 24.1905 52.0338L12.8878 45.7622ZM20.1932 60.1662C18.2635 62.923 14.5419 64.7149 9.30403 65.473C7.16755 60.5797 6.75403 56.5135 8.06349 53.4122C9.09728 50.9311 10.9581 49.6905 11.923 49.1392L15.3 51L11.923 56.9959C11.4405 57.823 11.7851 58.8568 12.6121 59.3392C13.4392 59.8216 14.473 59.477 14.9554 58.65L18.3324 52.6541L21.7094 54.5149C21.7784 55.7554 21.7094 58.0297 20.1932 60.1662Z" fill="#D9534F"/>
<path d="M30.3244 29.2216C33.2189 30.8068 36.9406 29.773 38.5257 26.8784C40.1108 23.9838 39.0771 20.2622 36.1825 18.677C33.2879 17.0919 29.5662 18.1257 27.9811 21.0203C26.396 23.9149 27.4298 27.5676 30.3244 29.2216ZM34.5284 21.6405C35.7689 22.3297 36.2514 23.9149 35.5622 25.1554C34.873 26.396 33.2879 26.8784 32.0473 26.1892C30.8068 25.5 30.3244 23.9149 31.0135 22.6743C31.7027 21.4338 33.2879 20.9514 34.5284 21.6405Z" fill="#0948B3"/>
</svg>
